<?xml version="1.0" standalone="no"?><!DOCTYPE svg PUBLIC "-//W3C//DTD SVG 1.1//EN" "http://www.w3.org/Graphics/SVG/1.1/DTD/svg11.dtd"><svg t="1720797512953" class="icon" viewBox="0 0 1024 1024" version="1.1" xmlns="http://www.w3.org/2000/svg" p-id="9397" width="400" height="400" xmlns:xlink="http://www.w3.org/1999/xlink"><path d="M629.76 34.56l220.16 128c79.36 46.08 128 130.56 128 221.44v254.72c0 90.88-48.64 175.36-128 221.44l-220.16 128c-79.36 46.08-176.64 46.08-256 0L153.6 860.16C74.24 814.08 25.6 729.6 25.6 638.72V384c0-90.88 48.64-175.36 128-221.44l220.16-128c79.36-46.08 177.92-46.08 256 0z" fill="#0080FF" p-id="9398"></path><path d="M290.56 690.2656L359.68 622.4256c37.12 48.64 81.92 75.52 145.92 78.08 34.56 1.28 69.12-7.68 99.84-25.6 6.4 6.4 21.76 23.04 24.32 25.6-37.12 24.32-80.64 35.84-124.16 34.56-49.92-1.28-97.28-19.2-135.68-51.2 0-1.28-43.52 43.52-44.8 43.52 11.52 34.56-15.36 71.68-53.76 71.68-29.44-1.28-53.76-25.6-53.76-56.32 0-39.68 38.4-65.28 72.96-52.48" fill="#FFFFFF" p-id="9399"></path><path d="M698.88 399.36c21.76 35.84 34.56 78.08 33.28 119.04-1.28 51.2-21.76 101.12-56.32 139.52 0 0 26.88 29.44 28.16 29.44 11.52-1.28 21.76 2.56 29.44 10.24 12.8 14.08 12.8 35.84-1.28 48.64s-35.84 12.8-48.64-1.28c-7.68-7.68-10.24-19.2-8.96-30.72-28.16-30.72-51.2-53.76-51.2-53.76 48.64-39.68 72.96-92.16 74.24-143.36 1.28-33.28-7.68-65.28-24.32-94.72l25.6-23.04zM336.64 280.32c7.68 7.68 10.24 19.2 8.96 30.72l52.48 55.04c-5.12 3.84-15.36 11.52-25.6 24.32-29.44 33.28-46.08 74.24-47.36 117.76-1.28 33.28 6.4 65.28 23.04 94.72l-25.6 24.32c-21.76-35.84-33.28-78.08-32-120.32 1.28-51.2 20.48-101.12 55.04-139.52l-28.16-29.44c-11.52 1.28-23.04-2.56-30.72-10.24-12.8-14.08-12.8-35.84 1.28-48.64s35.84-12.8 48.64 1.28" fill="#FFFFFF" p-id="9400"></path><path d="M752.4096 228.8768c29.44 0 53.76 25.6 53.76 55.04s-24.32 55.04-53.76 55.04c-7.68 0-16.64-1.28-17.92-2.56l-72.96 69.12c-37.12-49.92-88.32-75.52-145.92-76.8-34.56-1.28-69.12 7.68-98.56 25.6l-24.32-25.6C429.8496 304.3968 472.0896 292.8768 516.8896 294.1568c49.92 1.28 97.28 19.2 135.68 51.2l47.36-44.8c-2.56-5.12-3.84-11.52-3.84-16.64C696.0896 253.1968 722.9696 228.8768 752.4096 228.8768" fill="#FFFFFF" p-id="9401"></path><path d="M576 501.76l-72.96 103.68c-1.28 1.28-1.28 1.28-2.56 1.28H499.2c-1.28 0-2.56-1.28-1.28-2.56l11.52-69.12h-51.2c-1.28 0-2.56 0-2.56-1.28-1.28-1.28 0-2.56 0-3.84l79.36-103.68c1.28-1.28 2.56-1.28 3.84-1.28 1.28 0 1.28 1.28 1.28 2.56l-11.52 69.12h44.8c1.28 0 2.56 0 2.56 1.28v3.84m-44.8-151.04c-6.4-1.28-12.8-1.28-19.2-1.28-83.2 0-153.6 60.16-163.84 143.36-11.52 89.6 52.48 171.52 142.08 183.04 89.6 11.52 171.52-52.48 183.04-142.08 11.52-89.6-51.2-171.52-142.08-183.04" fill="#FFFFFF" p-id="9402"></path></svg>